<?xml version="1.0" encoding="utf-8"?><svg viewBox="0 0 90 27" xmlns="http://www.w3.org/2000/svg" xmlns:xlink="http://www.w3.org/1999/xlink"><style>:root>svg{display:none}:root>svg:target{display:block}</style><svg fill="none" viewBox="0 0 90 27" id="logo" xmlns="http://www.w3.org/2000/svg"><g clip-path="url(#aclip0)"><path d="M26.995 6.659a.844.844 0 00-.482-.673L13.857.079a.844.844 0 00-.714 0L.487 5.986A.844.844 0 000 6.75v14.344c0 .345.21.655.53.783l12.657 5.063a.842.842 0 00.626 0l12.657-5.063a.843.843 0 00.53-.783V6.75l-.005-.091zM13.5 1.775l10.533 4.916-4.056 1.622L9.246 3.76 13.5 1.775zM7.188 4.721l10.565 4.482-4.253 1.701L2.967 6.691l4.221-1.97zm-5.5 3.275l10.968 4.388V24.91L1.687 20.523V7.996zM14.344 24.91V12.384l10.969-4.388v12.527l-10.97 4.387z" fill="#0A143A"/></g><path d="M44.156 18.484h-6.164L36.82 22h-3.738l6.352-17.063h3.257L49.078 22H45.34l-1.184-3.516zm-5.215-2.847h4.266L41.062 9.25l-2.12 6.387zM61.875 15.777c0 2.032-.434 3.618-1.3 4.758-.868 1.133-2.079 1.7-3.634 1.7-1.375 0-2.472-.528-3.293-1.583L53.496 22H50.45V4h3.387v6.457c.781-.914 1.809-1.371 3.082-1.371 1.547 0 2.758.57 3.633 1.71.883 1.134 1.324 2.731 1.324 4.794v.187zm-3.387-.246c0-1.281-.203-2.215-.61-2.8-.405-.594-1.01-.891-1.816-.891-1.078 0-1.82.441-2.226 1.324v5.004c.414.89 1.164 1.336 2.25 1.336 1.094 0 1.812-.54 2.156-1.617.164-.516.246-1.301.246-2.356zM67.547 22h-3.399V9.32h3.399V22zM63.949 6.04c0-.509.168-.927.504-1.255.344-.328.809-.492 1.395-.492.578 0 1.039.164 1.383.492.343.328.515.746.515 1.254 0 .516-.176.938-.527 1.266-.344.328-.801.492-1.371.492s-1.032-.164-1.383-.492c-.344-.328-.516-.75-.516-1.266zM74.402 6.203V9.32h2.168v2.485h-2.168v6.328c0 .469.09.805.27 1.008.18.203.523.304 1.031.304a5.4 5.4 0 00.996-.082v2.567a6.972 6.972 0 01-2.05.304c-2.376 0-3.587-1.199-3.633-3.597v-6.832h-1.852V9.32h1.852V6.203h3.386zM77.578 15.543c0-1.258.242-2.379.727-3.363.484-.985 1.18-1.746 2.086-2.285.914-.54 1.972-.81 3.175-.81 1.711 0 3.106.524 4.184 1.571 1.086 1.047 1.691 2.469 1.816 4.266l.024.867c0 1.945-.543 3.508-1.63 4.688-1.085 1.171-2.542 1.757-4.37 1.757-1.828 0-3.29-.586-4.383-1.757-1.086-1.172-1.629-2.766-1.629-4.782v-.152zm3.387.246c0 1.203.226 2.125.68 2.766.453.633 1.101.949 1.945.949.82 0 1.46-.313 1.922-.938.46-.632.691-1.64.691-3.023 0-1.18-.23-2.094-.691-2.742-.461-.649-1.11-.973-1.946-.973-.828 0-1.468.324-1.922.973-.453.64-.68 1.636-.68 2.988z" fill="#0A143A"/><defs><clipPath id="aclip0"><path fill="#fff" d="M0 0h27v27H0z"/></clipPath></defs></svg></svg>