<svg width="30" height="16" viewBox="0 0 30 16" fill="none" xmlns="http://www.w3.org/2000/svg">
<path d="M5.62501 9.24998C3.90253 9.24998 2.50003 10.6525 2.50003 12.375C2.50003 14.0974 3.90253 15.5 5.62501 15.5C7.34749 15.5 8.74999 14.0975 8.74999 12.375C8.74999 10.6525 7.34749 9.24998 5.62501 9.24998ZM5.62501 14.25C4.59124 14.25 3.75001 13.4088 3.75001 12.375C3.75001 11.3412 4.59124 10.5 5.62501 10.5C6.65878 10.5 7.50001 11.3412 7.50001 12.375C7.50001 13.4087 6.65878 14.25 5.62501 14.25Z" fill="black"/>
<path d="M24.375 9.24998C22.6525 9.24998 21.25 10.6525 21.25 12.375C21.25 14.0974 22.6525 15.5 24.375 15.5C26.0975 15.5 27.5 14.0975 27.5 12.375C27.5 10.6525 26.0975 9.24998 24.375 9.24998ZM24.375 14.25C23.3412 14.25 22.5 13.4088 22.5 12.375C22.5 11.3412 23.3412 10.5 24.375 10.5C25.4088 10.5 26.25 11.3412 26.25 12.375C26.25 13.4087 25.4088 14.25 24.375 14.25Z" fill="black"/>
<path d="M26.25 5.49998H25.1925C24.8062 5.49998 24.4275 5.3675 24.125 5.12498L19.2 1.18496C18.6475 0.74375 17.9538 0.5 17.2475 0.5H8.2125C7.16502 0.5 6.19377 1.02002 5.61252 1.89125L4.54875 3.48875C4.23 3.965 3.6975 4.25 3.12498 4.25C1.4025 4.25 0 5.6525 0 7.37498V9.875C0 11.5975 1.4025 13 3.12498 13C3.46998 13 3.75001 12.72 3.75001 12.375C3.75001 12.03 3.46998 11.75 3.12498 11.75C2.09121 11.75 1.24998 10.9088 1.24998 9.875V7.37498C1.24998 6.34121 2.09121 5.49998 3.12498 5.49998C4.1175 5.49998 5.03748 5.0075 5.58873 4.18121L6.6525 2.58494C7.00125 2.06246 7.58502 1.74992 8.2125 1.74992H17.2475C17.6725 1.74992 18.0875 1.89617 18.42 2.16119L23.345 6.09992C23.8662 6.51869 24.5237 6.7499 25.1937 6.7499H26.25C28.0837 6.7499 28.75 8.61863 28.75 9.87488C28.75 11.1061 27.8075 11.7499 26.875 11.7499C26.53 11.7499 26.25 12.03 26.25 12.375C26.25 12.72 26.53 12.9999 26.875 12.9999C28.6563 13 30 11.6562 30 9.875C30 7.75373 28.6863 5.49998 26.25 5.49998Z" fill="black"/>
<path d="M21.875 11.75H8.12502C7.78002 11.75 7.50001 12.03 7.50001 12.375C7.50001 12.72 7.78002 13 8.12502 13H21.875C22.22 13 22.5 12.72 22.5 12.375C22.5 12.03 22.22 11.75 21.875 11.75Z" fill="black"/>
<path d="M20.625 5.49998H15V3.62498C15 3.27998 14.72 2.99996 14.375 2.99996C14.03 2.99996 13.7499 3.27998 13.7499 3.62498V6.125C13.7499 6.47 14.03 6.75002 14.375 6.75002H20.625C20.97 6.75002 21.25 6.47 21.25 6.125C21.25 5.78 20.97 5.49998 20.625 5.49998Z" fill="black"/>
<path d="M11.875 5.49998H7.88625L8.685 3.905C8.83875 3.59627 8.71377 3.22127 8.40498 3.06623C8.09496 2.91248 7.72125 3.03623 7.56621 3.34625L6.31623 5.84627C6.21873 6.03875 6.22998 6.27002 6.34371 6.45377C6.45744 6.63752 6.65871 6.75002 6.87498 6.75002H11.875C12.22 6.75002 12.5 6.47 12.5 6.125C12.5 5.78 12.22 5.49998 11.875 5.49998Z" fill="black"/>
<path d="M16.875 8H15.625C15.28 8 15 8.28002 15 8.62502C15 8.97002 15.28 9.25004 15.625 9.25004H16.875C17.22 9.25004 17.5 8.97002 17.5 8.62502C17.5 8.28002 17.22 8 16.875 8Z" fill="black"/>
</svg>
